<?xml version="1.0" encoding="UTF-8" standalone="no"?>
<!-- Created with Inkscape (http://www.inkscape.org/) -->

<svg
   width="30"
   height="19"
   viewBox="0 0 30 19"
   version="1.1"
   id="svg1"
   xml:space="preserve"
   inkscape:version="1.4 (86a8ad7, 2024-10-11)"
   sodipodi:docname="shield-highway_hexagon_turkey.svg"
   xmlns:inkscape="http://www.inkscape.org/namespaces/inkscape"
   xmlns:sodipodi="http://sodipodi.sourceforge.net/DTD/sodipodi-0.dtd"
   xmlns="http://www.w3.org/2000/svg"
   xmlns:svg="http://www.w3.org/2000/svg"><sodipodi:namedview
     id="namedview1"
     pagecolor="#505050"
     bordercolor="#ffffff"
     borderopacity="1"
     inkscape:showpageshadow="0"
     inkscape:pageopacity="0"
     inkscape:pagecheckerboard="1"
     inkscape:deskcolor="#505050"
     inkscape:document-units="px"
     showgrid="false"
     inkscape:zoom="4.4783428"
     inkscape:cx="11.276493"
     inkscape:cy="-35.727502"
     inkscape:window-width="1440"
     inkscape:window-height="830"
     inkscape:window-x="-6"
     inkscape:window-y="-6"
     inkscape:window-maximized="1"
     inkscape:current-layer="layer1"><inkscape:grid
       id="grid1"
       units="px"
       originx="0"
       originy="0"
       spacingx="1"
       spacingy="1"
       empcolor="#0099e5"
       empopacity="0.30196078"
       color="#0099e5"
       opacity="0.14901961"
       empspacing="5"
       enabled="true"
       visible="false" /></sodipodi:namedview><defs
     id="defs1" /><g
     inkscape:label="Ebene 1"
     inkscape:groupmode="layer"
     id="layer1"><path
       sodipodi:type="star"
       style="fill:#000000;fill-opacity:1;stroke:none;stroke-width:1.4;stroke-linecap:square;stroke-linejoin:round;stroke-opacity:1"
       id="path1-8-8"
       inkscape:flatsided="true"
       sodipodi:sides="6"
       sodipodi:cx="25.578947"
       sodipodi:cy="20.842106"
       sodipodi:r1="27.468351"
       sodipodi:r2="23.788292"
       sodipodi:arg1="0.52359878"
       sodipodi:arg2="1.0471976"
       inkscape:rounded="0.06"
       inkscape:randomized="0"
       d="m 49.367237,34.576282 c -0.82405,1.427297 -22.140189,13.734175 -23.78829,13.734175 -1.648101,0 -22.9642395,-12.306878 -23.7882901,-13.734176 C 0.96660639,33.148984 0.9666065,8.5352275 1.790657,7.1079301 2.6147076,5.6806327 23.930846,-6.6262455 25.578947,-6.6262455 c 1.648101,0 22.96424,12.3068784 23.78829,13.7341758 0.824051,1.4272974 0.824051,26.0410537 0,27.4683517 z"
       transform="matrix(0.57716453,0,0,0.31650328,0.23673904,2.944845)" /><path
       sodipodi:type="star"
       style="fill:#c97600;fill-opacity:1;stroke:none;stroke-width:1.4;stroke-linecap:square;stroke-linejoin:round;stroke-opacity:1"
       id="path1-82"
       inkscape:flatsided="true"
       sodipodi:sides="6"
       sodipodi:cx="25.578947"
       sodipodi:cy="20.842106"
       sodipodi:r1="27.468351"
       sodipodi:r2="23.788292"
       sodipodi:arg1="0.52359878"
       sodipodi:arg2="1.0471976"
       inkscape:rounded="0.06"
       inkscape:randomized="0"
       d="m 49.367237,34.576282 c -0.82405,1.427297 -22.140189,13.734175 -23.78829,13.734175 -1.648101,0 -22.9642395,-12.306878 -23.7882901,-13.734176 C 0.96660639,33.148984 0.9666065,8.5352275 1.790657,7.1079301 2.6147076,5.6806327 23.930846,-6.6262455 25.578947,-6.6262455 c 1.648101,0 22.96424,12.3068784 23.78829,13.7341758 0.824051,1.4272974 0.824051,26.0410537 0,27.4683517 z"
       transform="matrix(0.52546863,0,0,0.26545702,1.5590658,4.008757)" /></g></svg>
